<svg id="Calque_2" data-name="Calque 2" xmlns="http://www.w3.org/2000/svg" viewBox="0 0 59.53 63.93"><defs><style>.cls-1{fill:#c2002f;}.cls-2{fill:#dc0031;}.cls-3{fill:#fefdfe;}.cls-4{fill:#dc0132;}.cls-5{fill:#c20130;}</style></defs><g id="_76xckY.tif" data-name="76xckY.tif"><path class="cls-1" d="M29.82,63.93h-.13a.06.06,0,0,0,0-.06,3.85,3.85,0,0,0,.07-.49V39.45l.33,0h7.19a.42.42,0,0,1,.48.32c1.15,2.91,2.31,5.8,3.46,8.7a.44.44,0,0,0,.48.33h6.59l-.17-.41Q39.81,29.68,31.51,11L29.76,7.1V0a.66.66,0,0,1,.15,0L53.24,8.34l6.29,2.23V11a.8.8,0,0,0-.07.2c-.1.85-.19,1.7-.29,2.54-.15,1.28-.3,2.55-.44,3.83-.13,1.05-.25,2.11-.37,3.16-.15,1.25-.29,2.49-.43,3.73s-.28,2.49-.43,3.73-.29,2.53-.44,3.79-.28,2.49-.43,3.73-.29,2.5-.43,3.76c-.13,1.05-.24,2.11-.37,3.17-.14,1.25-.29,2.5-.43,3.75-.13,1.08-.26,2.16-.37,3.24a.56.56,0,0,1-.34.47L34,61.59C32.62,62.36,31.22,63.15,29.82,63.93Z"/><path class="cls-2" d="M29.69,63.87l-3.87-2.13L4.88,50.15a.64.64,0,0,1-.39-.57c-.27-2.46-.56-4.92-.84-7.37q-.47-3.9-.91-7.8c-.3-2.6-.59-5.2-.89-7.8-.33-2.79-.65-5.58-1-8.37C.58,15.71.29,13.18,0,10.6L1.7,10,29.51.07,29.76,0V7.1c-.05.09-.1.17-.14.26l-17.38,39-1.08,2.44h.4c2,0,4.1,0,6.15,0a.48.48,0,0,0,.53-.36c1.15-2.9,2.32-5.8,3.47-8.7.09-.24.22-.29.46-.29h7.19l.4,0V63.38A3.85,3.85,0,0,1,29.69,63.87Z"/><path class="cls-3" d="M29.76,39.45l-.4,0H22.17c-.24,0-.37,0-.46.29-1.15,2.9-2.32,5.8-3.47,8.7a.48.48,0,0,1-.53.36c-2.05,0-4.1,0-6.15,0h-.4l1.08-2.44,17.38-39c0-.09.09-.17.14-.26L31.51,11q8.31,18.69,16.61,37.36l.17.41H41.7a.44.44,0,0,1-.48-.33c-1.15-2.9-2.31-5.79-3.46-8.7a.42.42,0,0,0-.48-.32H30.09Zm0-5.78h5.41l-.1-.29q-2.59-6.24-5.18-12.46a2.39,2.39,0,0,0-.13-.21,1.23,1.23,0,0,0-.14.25q-2.6,6.2-5.17,12.42c0,.08-.06.18-.1.29Z"/><path class="cls-4" d="M29.76,33.67H24.35c0-.11.06-.21.1-.29Q27,27.16,29.62,21a1.23,1.23,0,0,1,.14-.25Z"/><path class="cls-5" d="M29.76,33.67v-13a2.39,2.39,0,0,1,.13.21q2.59,6.22,5.18,12.46l.1.29Z"/></g></svg>