<svg id="Calque_2" data-name="Calque 2" xmlns="http://www.w3.org/2000/svg" viewBox="0 0 59.53 58.03"><defs><style>.cls-1{fill:#49021f;}.cls-2{fill:#f36;}</style></defs><rect class="cls-1" width="59.53" height="58.03" rx="10.62"/><rect class="cls-2" x="16" y="14.85" width="5.66" height="26.45" rx="0.51"/><path class="cls-2" d="M43.52,12.69H38.88a.51.51,0,0,0-.51.51v7.56H36.08A10.52,10.52,0,0,0,25.45,31.17c0,.12,0,.24,0,.36s0,.23,0,.35a9.88,9.88,0,0,0,10.06,9.7h.57A19,19,0,0,0,43.63,40a.72.72,0,0,0,.4-.65V13.2A.51.51,0,0,0,43.52,12.69ZM38.35,36.28a.26.26,0,0,1-.19.23,16,16,0,0,1-2.41.05,5,5,0,0,1-4.62-4.76c0-.1,0-.85,0-1a5.54,5.54,0,0,1,5.38-5.47h1.56a.29.29,0,0,1,.3.3Z"/></svg>