<?xml version="1.0" encoding="utf-8"?>
<!-- Generator: Adobe Illustrator 25.3.1, SVG Export Plug-In . SVG Version: 6.00 Build 0)  -->
<svg version="1.1" id="Calque_1" focusable="false" xmlns="http://www.w3.org/2000/svg" xmlns:xlink="http://www.w3.org/1999/xlink"
	 x="0px" y="0px" viewBox="0 0 448 448" style="enable-background:new 0 0 448 448;" xml:space="preserve">
<style type="text/css">
	.st0{fill:#F7DF1E;}
</style>
<rect y="0" class="st0" width="448" height="448"/>
<path d="M243.8,349.4c0,43.6-25.6,63.5-62.9,63.5c-33.7,0-53.2-17.4-63.2-38.5l34.3-20.7c6.6,11.7,12.6,21.6,27.1,21.6
	c13.8,0,22.6-5.4,22.6-26.5V205.7h42.1L243.8,349.4L243.8,349.4z"/>
<path d="M343.4,412.9c-39.1,0-64.4-18.6-76.7-43l34.3-19.8c9,14.7,20.8,25.6,41.5,25.6c17.4,0,28.6-8.7,28.6-20.8
	c0-14.4-11.4-19.5-30.7-28l-10.5-4.5c-30.4-12.9-50.5-29.2-50.5-63.5c0-31.6,24.1-55.6,61.6-55.6c26.8,0,46,9.3,59.8,33.7L368,258
	c-7.2-12.9-15-18-27.1-18c-12.3,0-20.1,7.8-20.1,18c0,12.6,7.8,17.7,25.9,25.6l10.5,4.5c35.8,15.3,55.9,31,55.9,66.2
	C413.1,392.1,383.3,412.9,343.4,412.9L343.4,412.9z"/>
</svg>
