<?xml version="1.0" encoding="utf-8"?>
<!-- Generator: Adobe Illustrator 25.3.1, SVG Export Plug-In . SVG Version: 6.00 Build 0)  -->
<svg version="1.1" id="Calque_1" xmlns="http://www.w3.org/2000/svg" xmlns:xlink="http://www.w3.org/1999/xlink" x="0px" y="0px"
	 viewBox="0 0 1280 786.8" style="enable-background:new 0 0 1280 786.8;" xml:space="preserve">
<style type="text/css">
	.st0{fill:#333333;}
	.st1{fill:#6BBF47;}
	.st2{fill:#689F63;}
</style>
<path class="st0" d="M864,1.1l56.2,31.5c5.5,3.1,11.1,6.1,16.5,9.3c5.4,2.9,8.7,8.7,8.4,14.8c0,116.7,0,233.3,0,350
	c0,7.2-3.2,12.3-9.4,15.9C908.8,438,882,453.5,855.2,469c-11.7,6.7-23.6,13.2-35,20.4c-9,5.7-16.8,5.5-26,0
	c-38.3-22.6-76.9-44.8-115.5-66.8c-7.4-4.2-9.8-10.5-9.8-18.3c-0.1-18,0-36,0-54c0-25.7,0.2-51.3-0.1-77
	c-0.1-10.3,3.2-17.4,12.7-22.8c39.2-22.1,78-44.8,117-67.3c5.4-3.1,11-3.5,16.7-0.3c9.1,5.2,18.2,10.5,27.3,15.6
	c7.1,3.9,10.2,2,10.2-6.1c0-60.2,0-120.3,0-180.5c0-4.3,0.2-8.4,4.2-11.1C859.3,0,860.5-0.7,864,1.1z M852,338.1
	c0-7.3-0.1-14.7,0-22c0-3.1-0.8-5.3-3.7-6.9c-12-6.8-24-13.8-35.9-20.8c-3.5-2-6.6-2.4-10.3-0.3c-11.9,7-23.9,13.9-36,20.7
	c-2.7,1.4-4.3,4.2-4.1,7.3c0.1,14.3,0.1,28.7,0,43c-0.3,3,1.4,5.9,4.2,7.2c12.1,6.7,24.1,13.6,35.9,20.7c3.7,2.2,6.7,2,10.2-0.1
	c11.9-7,24-13.8,35.8-21c2-1.5,3.4-3.7,3.7-6.2C852.2,352.4,851.9,345.3,852,338.1z"/>
<path class="st0" d="M0,267c0-13.6,6.4-16.7,10.5-19.1c38.5-22.5,77.3-44.6,115.9-67c7.4-4.3,13.9-4.6,21.5-0.2
	c38.9,22.6,77.9,45,117,67.2c7.1,4.1,10.4,9.6,10.3,17.9c-0.2,60.8-0.2,121.6-0.2,182.5c0,11.8-5.6,15-15.8,9.1
	c-22.3-12.7-44.5-25.4-66.9-38.1c-6.6-3.7-9.7-9-9.6-16.7c0.1-27.3-0.1-54.6,0.1-82c0.1-9-3.1-15.2-11.2-19.4
	c-8.6-4.4-16.8-9.5-25.1-14.4c-6.2-3.6-12.1-3.7-18.4,0c-8.7,5.2-17.5,10.3-26.4,15.2c-6.7,4-9.7,9.4-9.7,17.3c0.3,27-0.1,54,0.2,81
	c0.1,9-3,15.1-11,19.6C58.6,432.5,32,447.7,9.4,460.5c-4.6,2.4-9.4,2-9.4-4.5V267z"/>
<path class="st0" d="M1280,303.1c0,5.5-5.7,8.4-10.3,11c-23,13.2-45.8,26.6-68.7,39.9c-7.8,4.5-13.8,1-14-8.2c-0.2-10-0.2-20,0-30
	c0.1-4.3-1.3-7.3-5.1-9.5c-12-6.8-23.9-14-36-20.5c-2.5-1.1-5.4-1.1-7.9,0c-12.3,6.6-24.5,13.5-36.4,20.9c-2.3,1.5-4.3,5.3-4.4,8.1
	c-0.4,13.8-0.1,27.7-0.3,41.5c-0.1,4.9,2.8,7.1,6.4,9.2L1167,402c18.4,10.5,36.7,21,55,31.6c7.1,4.1,6.8,11.5-0.7,15.7
	c-15.7,8.8-31.4,17.5-47.2,26.2c-7.6,4.2-15.2,8.2-22.7,12.7c-6,3.6-11.9,3.8-18,0.3c-24.7-14.1-49.5-28.2-74.2-42.3
	c-15.2-8.7-30.3-17.4-45.6-25.9c-6.1-3.4-8.8-8.6-8.8-15.2c-0.1-46.3-0.1-92.7,0-139c0-6.8,3.1-11.8,9.3-15.4
	c39.6-22.7,79.1-45.5,118.6-68.4c7-4.1,13.4-4.1,20.2-0.1c38.7,22.5,77.5,45,116.2,67.5c4.8,2.8,10.6,5.6,10.6,11.4L1280,303.1z"/>
<path class="st1" d="M609.1,335.5c0,23.3,0,46.6,0,70c0,6.3-2.5,10.9-7.9,14c-39.8,23-79.6,46-119.4,68.9c-6.6,3.8-12.8,3.7-19.4,0
	c-38.9-22.5-77.9-45-116.8-67.4c-7.5-4.3-10.7-10.3-10.7-18.8c0.1-44.7,0.1-89.3,0-134c0-8.3,3.6-13.9,10.5-17.9
	C384,228.1,422.6,206,461,183.6c8-4.6,15-4.4,22.9,0.2c38.7,22.6,77.5,45,116.4,67.3c6.1,3.5,9,8.4,8.9,15.5
	C609.1,289.5,609.2,312.5,609.1,335.5L609.1,335.5z"/>
<path class="st2" d="M668.5,693.2c-13.1,0.1-26-1.4-38.2-6.5c-14.5-6-23.8-19.7-23.5-34.1c0.1-4.4,1.8-6.6,6.3-6.5c0.7,0,1.3,0,2,0
	c12.1,0.2,13-1.6,16,10.9c2.3,9.5,10.8,13.1,19.6,13.7c11.1,0.6,22.2,0.6,33.3,0.1c3.5-0.1,7.1-1.7,10.4-3.2c6-2.8,7.9-8,7.6-14.5
	c-0.3-5.8-4.3-8.4-8.9-9.5c-9.4-2.2-18.9-3.9-28.4-5.3c-12.7-1.8-25.3-3.1-37.4-8.3c-21.6-9.2-19.8-38.9-8.8-50.2
	c8.9-9.2,20-12.8,32.1-14.6c11.5-1.8,22.9-0.9,34.3,1c21.2,3.6,34.8,17.2,36.3,36.1c0.5,5.8-0.5,6.8-6.2,6.9c-0.7,0-1.3,0-2,0
	c-8.3,1.1-14.3-0.5-16.7-10.1c-1.5-6.1-6.8-9.9-13-11.3c-12-2.9-24.6-2.9-36.6-0.2c-3.6,0.8-6.8,2.6-9.4,5.2
	c-6.3,6.8-3.5,15.8,5.6,18s18.3,3.3,27.5,5.2c11.6,2.3,23.3,4.1,34.6,7.4c11.7,3.5,19.4,11.6,20.8,24.3c1.5,13-1.9,24.6-12.4,33.1
	c-11,8.9-24.2,11.3-37.9,12.3C673.2,693.3,670.8,693.2,668.5,693.2z"/>
<path class="st2" d="M1169.1,335.4c0-4.3,0-8.6,0-12.9c0.2-1.7-0.7-3.3-2.2-4.1c-7-4-14-8.1-21-12.2c-1.8-1.3-4.2-1.3-6-0.1
	c-7,4.1-14,8.1-21,12.1c-1.6,0.8-2.6,2.5-2.4,4.3c0.1,8.4,0.1,16.8,0,25.2c-0.1,1.8,0.8,3.5,2.5,4.2c7.1,3.9,14.1,8,21,12.1
	c1.8,1.3,4.2,1.2,6-0.1c7-4.1,14-8.1,20.9-12.3c1.2-0.9,1.9-2.2,2.1-3.6C1169.3,343.8,1169.1,339.6,1169.1,335.4z"/>
<path class="st2" d="M838.4,555.2c0,14.2-11.1,25.3-25.6,25.3c-14.3,0-25.8-11.1-25.8-25.3c0-13.9,11.4-25,25.8-25
	C827.3,530.2,838.4,541.3,838.4,555.2z M793.4,555.2c0,11.1,8.2,20,19.5,20c11,0,19.1-8.8,19.1-19.8s-8.1-20.1-19.2-20.1
	S793.4,544.2,793.4,555.2L793.4,555.2z M808.8,568.3H803v-25c3.2-0.6,6.4-0.8,9.6-0.8c4.7,0,6.9,0.8,8.7,1.8
	c1.6,1.4,2.5,3.4,2.4,5.5c0,2.7-2.1,4.9-5.2,5.8v0.4c2.4,0.9,3.8,2.7,4.6,6.1c0.8,3.8,1.2,5.3,1.8,6.2h-6.2c-0.8-0.9-1.2-3.2-2-6.1
	c-0.5-2.7-2-4-5.2-4h-2.7L808.8,568.3z M809,554.1h2.7c3.2,0,5.8-1.1,5.8-3.7c0-2.3-1.7-3.8-5.3-3.8c-1.1,0-2.1,0.1-3.2,0.3V554.1z"
	/>
<path class="st2" d="M773,561.9c0-10.4-4.5-18.5-13.8-23.9c-36.1-20.8-72.3-41.3-108.1-62.7c-13-7.7-24.3-7.7-37.3,0
	c-35.9,21.4-72.3,42-108.5,62.9c-8.5,4.9-13.3,12.3-13.3,22c-0.2,44.2-0.2,88.3,0,132.5c0,9.8,4.3,17.6,13.2,22.6
	c7.5,4.2,15,8.7,22.5,13c12.4,7.2,25,13.2,40.1,10.8c11.3-1.8,20.5-6.5,24.8-17.5c2.2-5.6,3.3-11.4,3.4-17.4c0.3-41,0.2-82,0.2-123
	c0-14.7,1.3-13.3-13.5-13.3c-7.8,0-8.6,0.8-8.6,8.6c0,33.8,0,67.7,0,101.5c0,8.5,0.2,17-0.1,25.5c-0.3,8.9-7.4,15.2-16,13.9
	c-4.3-0.6-8.4-1.9-12.3-3.8c-9.2-5-18.1-10.6-27.3-15.7c-3.2-1.8-4.3-4.2-4.3-7.7c0.1-42.3,0.1-84.7,0-127c0-3.4,1.1-5.5,4.1-7.2
	c9.2-5.1,18.2-10.5,27.3-15.7c27.8-16,55.7-32.1,83.6-48c1.8-1,5.1-1.3,6.7-0.3c36.7,21,73.3,42.3,110,63.3c4.1,2.3,5.3,5.2,5.3,9.6
	c-0.1,41.2-0.1,82.3,0,123.5c0,5.5-2,8.5-6.6,11c-10.5,5.8-20.8,11.9-31.2,17.8c-25.4,14.6-50.8,29.3-76.2,44c-3.3,1.9-6,2-9.2,0
	c-6.4-4-18.1-10.8-25.5-15.4L579,757.3c13.8,8.3,31.1,18.6,45,26.8c7.6,3.6,8.5,3.6,16,0c3.2-1.7,6.5-3.3,9.7-5.1
	c15.6-9,31.1-18,46.7-27c21.2-12.3,42.4-24.5,63.6-36.8c9-5.2,13-13.3,13-23.3C773.1,648.6,773.1,605.3,773,561.9z"/>
</svg>
