<svg id="Calque_2" data-name="Calque 2" xmlns="http://www.w3.org/2000/svg" viewBox="0 0 59.53 58.03"><defs><style>.cls-1{fill:#001e36;}.cls-2{fill:#31a8ff;}</style></defs><rect class="cls-1" width="59.53" height="58.03" rx="10.62"/><g id="uXzFoN.tif"><path class="cls-2" d="M18.8,32.72h.31c.86,0,1.72,0,2.58,0a14.75,14.75,0,0,0,4.8-.76,8.08,8.08,0,0,0,5.05-4.71,9.82,9.82,0,0,0,.55-4.8,8.14,8.14,0,0,0-1.56-4,8.76,8.76,0,0,0-4.83-3.15,15.26,15.26,0,0,0-4.51-.52c-2.47,0-4.94.09-7.41.14-.31,0-.36.06-.36.39V40.58c0,.39.06.44.45.44h4.44c.43,0,.49-.07.49-.51V32.72Zm16,5.11c0,.69,0,1.37,0,2.06a.56.56,0,0,0,.37.58c.4.16.8.33,1.21.45a16,16,0,0,0,4.67.62A11.67,11.67,0,0,0,44.91,41a5.83,5.83,0,0,0,4.28-5.07A5,5,0,0,0,47.11,31a16.15,16.15,0,0,0-2.46-1.41c-.83-.41-1.71-.7-2.56-1.07a5.37,5.37,0,0,1-1.68-1,1.11,1.11,0,0,1,.5-1.93,4.46,4.46,0,0,1,1.09-.2,11.93,11.93,0,0,1,5.55,1.11c.43.22.66.08.66-.39V22.39c0-.09,0-.17,0-.25a.47.47,0,0,0-.35-.46c-.35-.11-.7-.26-1.06-.34A18.29,18.29,0,0,0,41.52,21a8.57,8.57,0,0,0-3.59,1A5.69,5.69,0,0,0,36.7,31.2a11.66,11.66,0,0,0,3,1.83c.87.39,1.78.71,2.65,1.11a4.16,4.16,0,0,1,1.13.74,1.06,1.06,0,0,1-.35,1.81,3.8,3.8,0,0,1-1.29.3,11.87,11.87,0,0,1-6.6-1.48c-.34-.19-.44-.13-.44.26C34.81,36.46,34.82,37.14,34.81,37.83Z"/><path class="cls-2" d="M18.8,32.72v7.79c0,.44-.06.51-.49.51H13.87c-.39,0-.45-.05-.45-.44V15.3c0-.33.05-.39.36-.39,2.47-.05,4.94-.11,7.41-.14a15.26,15.26,0,0,1,4.51.52,8.76,8.76,0,0,1,4.83,3.15,8.14,8.14,0,0,1,1.56,4,9.82,9.82,0,0,1-.55,4.8A8.08,8.08,0,0,1,26.49,32a14.75,14.75,0,0,1-4.8.76c-.86,0-1.72,0-2.58,0Zm0-13.06v8.42h2.42a8.47,8.47,0,0,0,2.95-.54,3.49,3.49,0,0,0,2.42-2.6,6.36,6.36,0,0,0,.11-1.57,3.5,3.5,0,0,0-1.75-3,4.42,4.42,0,0,0-2-.65c-1-.08-2-.07-3-.1C19.64,19.65,19.25,19.66,18.84,19.66Z"/><path class="cls-2" d="M34.81,37.83c0-.69,0-1.37,0-2.06,0-.39.1-.45.44-.26A11.87,11.87,0,0,0,41.86,37a3.8,3.8,0,0,0,1.29-.3,1.06,1.06,0,0,0,.35-1.81,4.16,4.16,0,0,0-1.13-.74c-.87-.4-1.78-.72-2.65-1.11a11.66,11.66,0,0,1-3-1.83A5.69,5.69,0,0,1,37.93,22a8.57,8.57,0,0,1,3.59-1,18.29,18.29,0,0,1,5.27.38c.36.08.71.23,1.06.34a.47.47,0,0,1,.35.46c0,.08,0,.16,0,.25v3.69c0,.47-.23.61-.66.39A11.93,11.93,0,0,0,42,25.36a4.46,4.46,0,0,0-1.09.2,1.11,1.11,0,0,0-.5,1.93,5.37,5.37,0,0,0,1.68,1c.85.37,1.73.66,2.56,1.07A16.15,16.15,0,0,1,47.11,31a5,5,0,0,1,2.08,4.95A5.83,5.83,0,0,1,44.91,41a11.67,11.67,0,0,1-3.85.57,16,16,0,0,1-4.67-.62c-.41-.12-.81-.29-1.21-.45a.56.56,0,0,1-.37-.58C34.82,39.2,34.81,38.52,34.81,37.83Z"/><path class="cls-1" d="M18.84,19.66c.41,0,.8,0,1.2,0,1,0,2,0,3,.1a4.42,4.42,0,0,1,2,.65,3.5,3.5,0,0,1,1.75,3,6.36,6.36,0,0,1-.11,1.57,3.49,3.49,0,0,1-2.42,2.6,8.47,8.47,0,0,1-2.95.54H18.84Z"/></g></svg>