<svg id="Calque_2" data-name="Calque 2" xmlns="http://www.w3.org/2000/svg" viewBox="0 0 59.53 58.03"><defs><style>.cls-1{fill:#470137;}.cls-2{fill:#a3809b;}.cls-3{fill:#ff61f6;}.cls-4{fill:#fe61f5;}</style></defs><rect class="cls-1" width="59.53" height="58.03" rx="10.62"/><path class="cls-2" d="M50,0V.08L49.3,0Z"/><path class="cls-3" d="M45.22,20.83v-.34c0-2.43,0-4.85,0-7.27,0-.47,0-.48.47-.48h4.84a.2.2,0,0,1,.2.2,2.62,2.62,0,0,1,0,.28q0,11.47,0,23c0,1,.08,1.91.12,2.86l0,.39a.44.44,0,0,1-.33.47c-.68.24-1.35.51-2,.7a20.39,20.39,0,0,1-6.35.79A11.26,11.26,0,0,1,36.85,40a8.47,8.47,0,0,1-4.19-5.71,12,12,0,0,1-.27-4,10,10,0,0,1,5-7.93,10.72,10.72,0,0,1,4.29-1.42c.6-.07,1.21-.12,1.81-.13s1,0,1.5,0Zm0,4.74-.12-.05-.67-.11a6.09,6.09,0,0,0-4.05.93A4.92,4.92,0,0,0,38.28,29,6.47,6.47,0,0,0,38,30.61a7.15,7.15,0,0,0,.42,3,4.3,4.3,0,0,0,2.45,2.59,5.58,5.58,0,0,0,1.93.43c.59,0,1.19,0,1.78,0a1.14,1.14,0,0,0,.62-.15Z"/><path class="cls-4" d="M16.47,28c-.06-.1-.11-.2-.17-.29L9.05,15.38a2,2,0,0,1-.12-.19c-.07-.16,0-.25.16-.28h5.72a.66.66,0,0,1,.66.43c.27.59.54,1.19.84,1.76C17,18.4,17.75,19.7,18.46,21c.62,1.12,1.22,2.25,1.83,3.38l.14.27c0-.05.08-.08.09-.12,1.24-2.59,2.65-5.08,4-7.61.32-.6.63-1.2.94-1.81a.35.35,0,0,1,.34-.21h5.32c.26,0,.34.14.2.36l-3.18,5.25q-2,3.36-4.09,6.72a.45.45,0,0,0,0,.55L31.7,40.33a.59.59,0,0,1,.14.55H25.59a.68.68,0,0,1-.6-.44c-.89-1.72-1.79-3.45-2.7-5.16-.7-1.31-1.44-2.61-2.16-3.91l-.14-.2-.12.21-4.94,9.26a.52.52,0,0,1-.44.3H8.77a.24.24,0,0,1,0-.31,2.07,2.07,0,0,1,.15-.25L16.32,28.2Z"/></svg>