<?xml version="1.0" encoding="utf-8"?>
<svg version="1.1" id="Calque_1" xmlns="http://www.w3.org/2000/svg" xmlns:xlink="http://www.w3.org/1999/xlink" x="0px" y="0px"
	 viewBox="0 0 209.8 199.6" style="enable-background:new 0 0 209.8 199.6;" xml:space="preserve">
<style type="text/css">
	.st0{fill:#ffffff;}
</style>
<g>
	<path class="st0" d="M134,9.9h-22.6c-3.5,0-5.8,1.7-7.1,5L82.1,68.5c-1.8,4.5-4,10.7-6.8,18.3h-0.6l-7-18.6L45.7,15
		c-1.3-3.4-3.6-5-7-5H15.9c-1.3,0-1.9,0.6-1.9,1.8v7.5c0,1.2,0.6,1.8,1.9,1.8h11.2v84H15.9c-1.3,0-1.9,0.6-1.9,1.8v7.5
		c0,1.2,0.6,1.8,1.9,1.8h34c1.3,0,1.9-0.6,1.9-1.8v-7.5c0-1.2-0.6-1.8-1.9-1.8H40V31.4h0.3l28.1,69.8c1.2,3,3.4,4.4,6.5,4.4
		c3.2,0,5.3-1.5,6.5-4.4l28.1-69.8h0.1v56L0,199.6L122.6,79.6V21H134c1.2,0,1.8-0.6,1.8-1.8v-7.5C135.8,10.5,135.2,9.9,134,9.9z"/>
	<path class="st0" d="M180.6,147.3l-6.2-4.1c-1.1-0.9-2-0.6-2.8,0.9c-2.3,3.8-5.8,7.6-10.7,11.4c-6.2,4.8-14.7,7.2-25.4,7.2
		c-10,0-18.6-3.7-26-11c-7.4-7.3-11.1-17.7-11.1-30.9c0-2.4,0.1-4.7,0.4-6.9l34.7-34.7c0.3,0,0.5,0,0.8,0c9.2,0,16.8,2.4,23,7.3
		c6.2,4.9,9.2,9.6,9.2,14.1v1.3c0,1.3,0.6,1.9,1.8,1.9h9.3c1.3,0,1.9-0.6,1.9-1.9V69.7c0-1.2-0.6-1.8-1.9-1.8h-8.3
		c-1.4,0-2,0.6-1.8,1.8l0.1,13.2c-5.2-8-12.9-13-23-14.9L209.8,0L84.6,122.8C85,138,89.8,150.5,99,160.1c9.6,10.1,21.6,15.1,36,15.1
		c5.9,0,11.5-0.7,16.6-2.2c5.2-1.5,9.3-3.2,12.5-5.1c3.2-1.9,6.1-4.2,8.7-6.9c2.7-2.7,4.5-4.8,5.5-6.3c1-1.5,1.8-2.8,2.2-3.7
		c0.4-0.9,0.7-1.7,0.7-2.2C181.3,148.2,181,147.7,180.6,147.3z"/>
</g>
</svg>
