<svg id="Calque_2" data-name="Calque 2" xmlns="http://www.w3.org/2000/svg" viewBox="0 0 59.53 58.03"><defs><style>.cls-1{fill:#300;}.cls-2{fill:#ff9a00;}</style></defs><rect class="cls-1" width="59.53" height="58.03" rx="10.62"/><path class="cls-2" d="M27.05,14.57H20.82a.35.35,0,0,0-.36.35v1.17a2.58,2.58,0,0,1-.14.83L12.13,40.54a.4.4,0,0,0,.38.54h4.65a.49.49,0,0,0,.47-.33l2.06-5.92h9l2.08,5.92a.5.5,0,0,0,.47.33h5a.4.4,0,0,0,.38-.54L27.68,15A.68.68,0,0,0,27.05,14.57ZM24.14,20l3,9.25a.27.27,0,0,1-.25.36H21.42a.27.27,0,0,1-.25-.36Z"/><rect class="cls-2" x="39.34" y="21.15" width="5.77" height="19.93" rx="0.51"/><circle class="cls-2" cx="42.22" cy="15.9" r="3.26"/></svg>