<svg id="Calque_2" data-name="Calque 2" xmlns="http://www.w3.org/2000/svg" viewBox="0 0 59.53 66.92"><defs><style>.cls-1{fill:#6599d1;}.cls-2{fill:#00599c;}.cls-3{fill:#fefefe;}.cls-4{fill:#004482;}.cls-5{fill:#659ad1;}</style></defs><g id="cpp"><path class="cls-1" d="M29.07,0h1.34l.13.05a5.48,5.48,0,0,1,2.07.71Q43.77,7.23,55,13.66c.79.46,1.6.91,2.36,1.41a4.17,4.17,0,0,1,1.43,1.68c-.09.06-.17.13-.26.18L48.39,22.76c-.48.28-1,.54-1.45.81a17.29,17.29,0,0,0-2.76-3.71,19.57,19.57,0,0,0-17.71-5.92,19,19,0,0,0-10.53,5.34A19.55,19.55,0,0,0,10,31.66a19.9,19.9,0,0,0,.54,6.79,20.57,20.57,0,0,0,2,5,2.06,2.06,0,0,0-.26.12L1.05,50.09a1.28,1.28,0,0,1-.27.11.48.48,0,0,1-.09-.11A5.14,5.14,0,0,1,0,47.61C0,38.2,0,28.78,0,19.37a5.12,5.12,0,0,1,2.66-4.59Q14.85,7.72,27,.71A8.76,8.76,0,0,1,28.38.16,5.32,5.32,0,0,1,29.07,0Z"/><path class="cls-2" d="M59.53,48.11c-.18.57-.36,1.15-.55,1.71a2.61,2.61,0,0,1-.24.43l-2.31-1.34-3.67-2.12L48.45,44.3l-1.51-.85a1.39,1.39,0,0,0-.19-.15l-8.19-4.74a1.12,1.12,0,0,0-.22-.09l-3.42-2c-1.24-.72-2.48-1.42-3.71-2.14l-1.4-.83a1.12,1.12,0,0,1,.22-.16l6.49-3.75c.61-.35,1.22-.72,1.83-1.08l.2-.1,4.81-2.78,3.58-2.08c.48-.27,1-.53,1.45-.81l10.09-5.83c.09-.05.17-.12.26-.18a5.06,5.06,0,0,1,.38.73c.16.43.27.88.41,1.32Z"/><path class="cls-3" d="M46.94,23.57l-3.58,2.08-4.81,2.78-.2.1,0-.07a9.81,9.81,0,0,0-7.63-4.84,9.4,9.4,0,0,0-5.88,1.29,9.84,9.84,0,0,0-4.95,7.87,8.66,8.66,0,0,0,.34,3.35,8.44,8.44,0,0,0,1,2.31c0,.08.08.16.13.24a9.82,9.82,0,0,0,10.16,4.57,9.68,9.68,0,0,0,6.86-4.78,1.12,1.12,0,0,1,.22.09l8.19,4.74a1.39,1.39,0,0,1,.19.15c-.06.09-.12.18-.17.27a19.86,19.86,0,0,1-20.12,9.36A19.59,19.59,0,0,1,15.26,47a19.55,19.55,0,0,1-4.71-8.56A19.9,19.9,0,0,1,10,31.66a19.55,19.55,0,0,1,5.93-12.38,19,19,0,0,1,10.53-5.34,19.57,19.57,0,0,1,17.71,5.92A17.29,17.29,0,0,1,46.94,23.57Z"/><path class="cls-4" d="M12.6,43.45A20.63,20.63,0,0,0,15.26,47a19.59,19.59,0,0,0,11.39,6.07,19.86,19.86,0,0,0,20.12-9.36c0-.09.11-.18.17-.27l1.51.85,4.31,2.49,3.67,2.12,2.31,1.34a5,5,0,0,1-1.94,2l-8.72,5-15.54,9a4.49,4.49,0,0,1-2.45.66,5.94,5.94,0,0,1-2.22-.25,5.68,5.68,0,0,1-.79-.37L2.67,52.21A5.15,5.15,0,0,1,.84,50.36a.76.76,0,0,1-.06-.16,1.28,1.28,0,0,0,.27-.11l11.29-6.52A2.06,2.06,0,0,1,12.6,43.45Z"/><path class="cls-5" d="M21.19,38.44a8.44,8.44,0,0,1-1-2.31,8.66,8.66,0,0,1-.34-3.35,9.84,9.84,0,0,1,4.95-7.87,9.4,9.4,0,0,1,5.88-1.29,9.81,9.81,0,0,1,7.63,4.84l0,.07c-.61.36-1.22.73-1.83,1.08L30,33.36a1.12,1.12,0,0,0-.22.16,1,1,0,0,0-.24.11l-6,3.47Z"/><path class="cls-4" d="M21.19,38.44l2.36-1.34,6-3.47a1,1,0,0,1,.24-.11l1.4.83c1.23.72,2.47,1.42,3.71,2.14l3.42,2a9.68,9.68,0,0,1-6.86,4.78,9.82,9.82,0,0,1-10.16-4.57C21.27,38.6,21.23,38.52,21.19,38.44Z"/></g></svg>