<svg id="Calque_1" data-name="Calque 1" xmlns="http://www.w3.org/2000/svg" viewBox="0 0 399.02 287.37"><defs><style>.cls-1{fill:#266cac;}.cls-2{fill:#489fd5;}.cls-3{fill:#feffff;}.cls-4{fill:#e8e8e8;}.cls-5{fill:#d35937;}.cls-6{fill:#e9e8e8;}.cls-7{fill:#e9e8e7;}.cls-8{fill:#e26e3f;}.cls-9{fill:#ebf4f8;}.cls-10{fill:#fffefe;}.cls-11{fill:#fff;}</style></defs><path class="cls-1" d="M170.08,29.49H399c-.79,9.44-20.74,233.84-20.74,233.84-28.12,7.45-62.35,17.1-90.42,24.76a14.29,14.29,0,0,1-7.23-.08c-28.38-7.75-61.31-16.93-89.67-24.75C191,263.26,172.06,52.78,170.08,29.49Z" transform="translate(0 -1.15)"/><path class="cls-2" d="M289,48.3h-4.13c.17,6.49.05,212.8.05,221l28.48-7.86c13.88-3.84,27.75-7.74,41.66-11.46,4.14-1.11,6.13-2.72,6.09-7.73-.06-8.57,10.45-121.15,11.81-135.48.83-8.72,4.58-49,5.37-58.43C378.28,48.3,317.28,48.41,289,48.3Z" transform="translate(0 -1.15)"/><path class="cls-3" d="M285.12,239.7" transform="translate(0 -1.15)"/><path class="cls-4" d="M250.4,134.54v28.58l34.64-.05q0-14.26,0-28.53Z" transform="translate(0 -1.15)"/><path class="cls-4" d="M224.14,224.34c-.89-13.36-2.56-31.92-3.75-45.7h29.37c.56,6.44,1.35,16.41,2.26,22.75,0,0,23.13,6.17,32.8,8.73,0,.17.06,31.08.06,31.08C266.59,236.08,224.14,224.34,224.14,224.34Z" transform="translate(0 -1.15)"/><path class="cls-4" d="M285.79,103.79l-75.28-.07c-.7-8.48-2.34-27-2.34-28.36,23.17,0,72.93.06,77.46.07Z" transform="translate(0 -1.15)"/><path class="cls-3" d="M284.88,241.2l-.06-31.08c9.83-2.64,22.74-5.88,32.59-8.41,0,0,2.32-26.4,3.45-38.64H285q0-14.26,0-28.53c11.21-.07,38.58-.16,38.58-.16l2.47-30.61H284.87l0-28.34,73.22-.28c-2.82,31.59-11.92,133.52-13.48,148.87C344.63,224,303,236.26,284.88,241.2Z" transform="translate(0 -1.15)"/><path class="cls-5" d="M13.56,153.33C11,125.5,8.35,97.68,5.86,69.85,3.82,47.15,2,24.44,0,1.15H229c-.8,9.43-1.54,18.65-2.35,27.86q-2.85,32.33-5.76,64.65C219,114,217.1,134.42,215.28,154.8c-2.18,24.37-7.07,80.18-7.07,80.18-28.13,7.45-62.36,17.1-90.43,24.77a14.4,14.4,0,0,1-7.23-.09c-28.38-7.74-61.3-16.93-89.67-24.74C20.88,234.92,15.9,179,13.56,153.33Z" transform="translate(0 -1.15)"/><path class="cls-6" d="M114.8,77l-.92.4-39.16,0-.64.57q1.23,13.56,2.48,27.13c0,.36,27-.18,38.25-.08.34.35-.1,6.12-.07,7.69.1,7.46.05,14.93.05,22.4-.28.19-39.47.33-58.78.23-1.8,0-3.61,0-5.84,0-1-10.93-2-21.5-2.91-32.07-1.53-17.75-3-35.5-4.48-53.25l1.07-1.13c19.66-.08,70.53-.78,70.85-.42C115,50,114.79,69.56,114.8,77Z" transform="translate(0 -1.15)"/><path class="cls-7" d="M51.5,150.27H80.28c.55,6.36,1,12.64,1.72,18.89.16,1.4,0,3.35,1,3.62,10.21,2.82,21.5,5.6,31.77,8.19,0,.17.17.34.12.5,0,9.82-.14,19.65-.11,29.47-.34.13-41.55-11.06-59.53-15.86C55.29,195.08,52.66,163.74,51.5,150.27Z" transform="translate(0 -1.15)"/><path class="cls-8" d="M118.87,20h-4.13c.17,6.5.18,22,0,28.53,0,1.55,23,28.52.1,28.52l-.92.4c.31,5.07.7,10.14.88,15.22.15,4.14,0,8.28,0,12.42,7.31,0,4.52,30.09,0,30.09l.07,0-.07,0,0,0,0,0c0,1.89,0,32.51,0,45.84,0,.17.23.21.13,0,4.41-1.2,6.55,28.19-.12,30l-.07,6.68c.11,7.57,0,15.13,0,23.29l28.48-7.86c13.88-3.83,27.75-7.74,41.66-11.46,4.14-1.11,6.13-2.71,6.09-7.72-.06-8.58,10.45-121.16,11.81-135.49.83-8.72,4.58-49,5.38-58.43C208.21,20,147.2,20.06,118.87,20Z" transform="translate(0 -1.15)"/><path class="cls-8" d="M114.76,135.15Z" transform="translate(0 -1.15)"/><path class="cls-8" d="M114.86,135.09Z" transform="translate(0 -1.15)"/><path class="cls-9" d="M43.85,48.9,42.78,50c0-.45,0-.89,0-1.34l.93-.32A1.68,1.68,0,0,0,43.85,48.9Z" transform="translate(0 -1.15)"/><path class="cls-10" d="M173.17,194.76c-18.53,5.33-39.75,11.09-58.35,16.18,0-9.82,0-20.15,0-30,9.3-2.54,22.22-5.47,31.46-8.21,0,0,2.46-25.2,3.56-37.63h-35c0-7.47,0-14.94-.05-22.4l.07-7.69c22,0,44.08,0,66.05,0C179.4,122.63,173.17,194.76,173.17,194.76Z" transform="translate(0 -1.15)"/><path class="cls-5" d="M76.56,105.12Q75.32,91.56,74.08,78a1,1,0,0,0,.64-.57c13.06,0,27-.41,40.08-.42.3,5.07-.22,10.54,0,15.62.15,4.14,0,8.28,0,12.42l0,0Z" transform="translate(0 -1.15)"/><path class="cls-11" d="M114.8,77c0-7.44-.11-28.18-.1-28.52,20.27-.11,39.67.3,59.94.2,3.62,0,7.24,0,11.62,0-.83,9.68-1.62,18.85-2.43,28.33Z" transform="translate(0 -1.15)"/></svg>