<?xml version="1.0" encoding="utf-8"?>
<!-- Generator: Adobe Illustrator 25.3.1, SVG Export Plug-In . SVG Version: 6.00 Build 0)  -->
<svg version="1.1" id="Calque_1" xmlns="http://www.w3.org/2000/svg" xmlns:xlink="http://www.w3.org/1999/xlink" x="0px" y="0px"
	 viewBox="0 0 576.2 596.2" style="enable-background:new 0 0 576.2 596.2;" xml:space="preserve">
<style type="text/css">
	.st0{fill:#0868AB;}
	.st1{fill:#131B28;}
</style>
<g>
	<path class="st0" d="M479.9,285.7c-6.6,15-15.8,28.1-27,39.8c-29.7,31-65.5,51-108.1,56.4C249.7,394,175,359,120.3,281.1
		c-20.3-28.8-32.2-61.3-35.7-96.4c-4.6-46.3,6.9-87.8,38.5-122.9c0.9-1,1.8-1.9,2.8-2.8c0.3-0.3,0.8-0.4,1.7-0.7
		c-1.5,9-3.1,17.6-4.3,26.2c-10.7,78.8,14.4,143.6,76.4,193.6c21.9,17.6,45.4,32.8,71.7,43c35.5,13.7,72.2,17.6,109.9,11.9
		c35.7-5.4,67.4-19,94.2-43.4C477.1,288.3,478.5,287,479.9,285.7z"/>
	<path class="st0" d="M233.4,22c-1,9.9-2.1,18.8-2.8,27.7c-4.2,52.6,14,95.8,55.2,128.8c23,18.4,48.3,32.8,77.4,39
		c48,10.3,90.4-0.8,126-35.4c0.5-0.5,1-0.9,1.5-1.3c0.1-0.1,0.3-0.1,1.5-0.3c-1.6,3.2-2.9,5.9-4.3,8.5
		c-16.4,30.5-42.1,49.4-74.7,59.2c-83.1,25.1-160.9-16.8-195.5-87.8c-16.6-34.1-18.9-70.1-4.6-106.1C217.7,42.6,224.7,32.2,233.4,22
		z"/>
	<path class="st0" d="M322.2,0c-5.7,41.9,9.3,74.5,43.1,98.8c33.3,24,68.8,29.3,107,12.1c-3.9,7.2-9.4,12.5-15.6,17.1
		c-17.8,13.1-38.2,15-59.1,12.6c-46.7-5.4-81.8-38.1-90.5-84.3C303.2,35.4,309.5,16.7,322.2,0z"/>
	<path class="st1" d="M195.6,532.2c-1.9,7.5-3.7,15.6-5.7,22.6c-0.2,0.8-2.3,1.7-3.5,1.7c-24.5,0-48.9,0.3-73.4-0.3
		c-18.1-0.5-30.7-12-33.1-30c-3.6-26.5,3-50.7,19.9-71.5c16.4-20.2,48.3-27,72-16.3c17.9,8.1,28.5,27.4,24.4,47.3
		c-2.6,12.8-7.2,25.2-11,37.8c-0.8,2.8-1.9,5.6-2.9,8.8L195.6,532.2z M151.6,532.1c1.5-0.2,3.8-1.6,4.2-2.9
		c4.1-14.9,8.2-29.8,11.8-44.8c2.1-8.9-1.9-17.7-9.1-22.1c-13.6-8.2-33.6-2.3-40.1,12.2c-5.5,12.1-8.5,24.8-9.5,38
		c-0.8,10.6,4.4,17.2,14.9,18.9C129.1,532.3,147.8,532.6,151.6,532.1z"/>
	<path class="st1" d="M382.9,557.4c-20.1-0.5-41.6-0.3-61.5-1.9c-13.5-1.1-21.1-11.4-20.3-25.1c0.9-16.4,4.4-32.4,11.4-47.3
		c2.2-4.6,5.8-9.1,9.9-12.3c14.3-11.4,30.9-15.3,48.9-11.9c19.5,3.7,27.6,16.4,24.5,37.2c-0.8,5.6-2.9,16.3-3.7,21.9
		c0,0-39.2-0.2-56.2-0.1c-2.5,0-6-0.9-6.8,2.9c-0.7,4.2-0.5,8.2,3.8,10.4c1.9,1,4.1,1.5,6.2,1.5c13.6,0.5,46.7,1.3,49.6,1.3
		L382.9,557.4z M334,496.7c9.9,0,19.4,0,28.8,0c6,0,7.5-1.9,5.2-7.5c-0.9-2.3-2.9-4.6-5-5.7C351.5,477.4,338.3,483.3,334,496.7z"/>
	<path class="st1" d="M261.2,532.1c4.7-20.8,10.3-45.5,14.6-66.4c0.9-4.1,2.5-5.4,6.6-5.2c6.3,0.4,12.6,0.1,19.7,0.1
		c-6.8,32.4-13.5,64-20.1,95.4c-19.2,0-38.1,0.6-56.8-0.2c-11.4-0.5-18.7-8.6-19.2-20c-0.3-8.2,0.6-16.6,2-24.8
		c2.6-15.4,6-30.7,8.9-46.1c0.7-3.5,2.2-4.6,5.7-4.4c6.5,0.3,12.9,0.1,20.5,0.1c-1.3,7.9-2.4,15.2-3.8,22.4
		c-1.9,10.1-4.5,20.2-6,30.3c-0.5,3.6-1.1,7.3-1.4,11.2c-0.4,4.2,3,7.7,7.1,7.7C249,532.2,261.2,532.1,261.2,532.1z"/>
	<path class="st1" d="M43.7,482.4c1.6-7.1,2.9-13.4,4.5-19.6c0.2-0.9,1.7-2.2,2.6-2.2c8.1-0.2,16.2-0.1,25-0.1
		c-1.4,7-2.7,13.4-4.2,19.8c-0.2,0.9-1.8,2-2.7,2C60.8,482.5,52.7,482.4,43.7,482.4z"/>
	<path class="st1" d="M544.7,446.2l-41,59.1c-0.5-1.7-2.2-7.6-4.2-14.9h-29.1c2.2,7.9,10.3,36.9,11.8,41.7l-6.1,24h34.1l6.4-24
		l59.6-85.9L544.7,446.2z"/>
	<path class="st1" d="M493.5,468.8c-1.4-5.1-6.1-8.6-11.4-8.6h-64.3c-4,19.8-18,85.1-20.4,96.7h25.9c4.3-20.8,10-47.5,14.4-68.1
		c1.1-5.3,0.8-5.1,6.1-5.1l53.8-0.2C496.5,479.6,494.9,473.9,493.5,468.8z"/>
	<path class="st1" d="M45.4,490.4c-3.1,0.1-2.6-0.3-3.6,3c-2.2,7.1-4.1,14.4-5.8,21.7c-2.6,10.9-4.9,21.8-7.5,32.6
		c-1.2,5.5-2.3,10.1-3.5,15.1c-0.9,3.8-4.6,6.4-8.5,6L5,567.6c-0.2,0.3-0.3,0.7-0.4,1.2L0,594.9c0.8,0.3,11.6,0.8,22.4,1.3
		c12.8,0.5,24.1-8,27.1-20.4c7.7-31.5,19.1-80.7,20.2-85.5C61.1,490.3,53.2,490.2,45.4,490.4z"/>
</g>
</svg>
