<?xml version="1.0" encoding="utf-8"?>
<!-- Generator: Adobe Illustrator 25.3.1, SVG Export Plug-In . SVG Version: 6.00 Build 0)  -->
<svg version="1.1" id="Calque_2_1_" xmlns="http://www.w3.org/2000/svg" xmlns:xlink="http://www.w3.org/1999/xlink" x="0px"
	 y="0px" viewBox="0 0 672.79 747.11" style="enable-background:new 0 0 672.79 747.11;" xml:space="preserve">
<style type="text/css">
	.st0{fill:#4BAF3E;}
	.st1{fill:#413020;}
	.st2{fill:#3F9A39;}
	.st3{fill:#E7E7D5;}
</style>
<path class="st0" d="M667.75,134c-3.5-41.77-24.64-73.2-62.59-91.55C591.91,36.07,577,33,562.52,29.33
	c-18.87-4.75-37.92-8.83-57-12.64C466.7,8.82,427.37,3.73,387.82,1.47c-24.56-1.34-49.27-2-73.83-1
	c-30.55,1.25-61.14,3.56-91.5,7.15c-41,4.84-81.36,13.57-121.4,23.73C80.11,36.69,60.2,44,43.75,58.69
	C26.63,74,13.59,92.5,9.94,115.1c-4.64,28.66-7.27,57.75-9,86.75c-1.49,24.55-0.84,49.25-0.47,73.87c0.47,31.2,4.79,62,11.07,92.54
	C23.31,426.15,45.2,481.52,76.21,531.8c40.08,64.01,93.3,118.78,156.13,160.69c11.89,7.88,24.33,14.93,36.42,22.5
	c20.25,12.68,41.82,22.67,63.93,31.55c2.31,0.81,4.83,0.75,7.1-0.16c13-5.82,25.95-11.72,38.66-18.11S404,715.36,416.2,708
	c44.93-27.18,85.78-60.58,121.36-99.2c19.65-21.31,37.45-44.25,53.23-68.57c23.85-36.78,42.69-76.59,56-118.36
	c18.24-56.95,26.12-115.42,26-189.84C671.68,209.14,670.9,171.48,667.75,134z"/>
<path class="st1" d="M592.75,404.51c-11.79,36.97-28.44,72.21-49.53,104.79c-14.05,21.63-29.9,42.03-47.37,61
	c-32,34.68-68.73,64.69-109.09,89.14c-10,6.06-20.76,11.56-33.81,18.14c-5.78,2.9-11.74,5.75-17.61,8.48
	c-12.6-5.54-24.8-11.95-36.52-19.17c-5.08-3.19-10.11-6.22-15-9.14c-7.18-4.33-14-8.42-20.25-12.58
	c-55.94-37.35-103.34-86.13-139.09-143.11c-27.49-44.67-46.92-93.82-57.41-145.22c-6.3-30.65-9.54-57.47-9.91-82
	c0-2.83-0.09-5.65-0.14-8.48c-0.35-21.36-0.68-41.54,0.49-61.12c1.91-31.78,4.58-57.55,8.39-81.11c1.16-7.15,6.42-15,15.64-23.2
	C88.26,95,98.27,90.57,115,86.32c44.76-11.36,81-18.47,114.11-22.38c27.88-3.29,57.2-5.58,87.16-6.81
	c7.17-0.29,14.75-0.44,22.54-0.44c13.75,0,28.76,0.46,45.89,1.39c36.85,2.13,73.5,6.87,109.68,14.2c21.47,4.29,38.72,8.11,54.28,12
	l6.87,1.72c9.81,2.4,19.07,4.67,25,7.51c19.71,9.53,28.92,23.07,30.78,45.26c2.18,25.95,3.18,52.41,4,73.68
	c0.28,7.54,0.55,14.69,0.84,20.91c-0.06,68.03-7.27,120.87-23.38,171.17L592.75,404.51z"/>
<path class="st0" d="M336.17,110.92v376.83l-18.67,55.34c0,0-91-68.57-94.36-180.93C218.57,208.73,336.17,110.92,336.17,110.92z"/>
<path class="st2" d="M336.17,110.92v376.83l18.66,55.34c0,0,91-68.57,94.37-180.93C453.77,208.73,336.17,110.92,336.17,110.92z"/>
<polygon class="st3" points="336.17,487.75 317.5,543.09 317.5,599.06 354.83,599.06 354.83,543.09 "/>
</svg>
