<?xml version="1.0" encoding="utf-8"?>
<!-- Generator: Adobe Illustrator 25.3.1, SVG Export Plug-In . SVG Version: 6.00 Build 0)  -->
<svg version="1.1" id="Calque_1" focusable="false" xmlns="http://www.w3.org/2000/svg" xmlns:xlink="http://www.w3.org/1999/xlink"
	 x="0px" y="0px" viewBox="0 0 640 510.2" style="enable-background:new 0 0 640 510.2;" xml:space="preserve">
<style type="text/css">
	.st0{fill:#8B92BD;}
	.st1{fill:#242431;}
</style>
<g>
	<ellipse class="st0" cx="320" cy="255.1" rx="320" ry="168.3"/>
	<path class="st1" d="M247.3,197.4c-9.7-11.2-25.3-16.7-46.5-16.7h-70.7L97.4,349.4h36.7l8.7-44.8c41.1,0,66.6,3,90.2-19.1
		C259.1,261.5,265.9,218.8,247.3,197.4z M218.2,241.6c-7.9,40.5-35.8,36.3-70.1,36.3l13.7-70.6C199.8,207.3,225.6,203.2,218.2,241.6
		z"/>
	<path class="st1" d="M283.1,135.8h36.5l-8.7,44.8c31.5,0,60.7-2.3,74.8,10.7c14.8,13.6,7.7,31-8.3,113.1h-37
		c15.4-79.4,18.3-86,12.7-92c-5.4-5.8-17.7-4.6-47.4-4.6l-18.8,96.6h-36.5L283.1,135.8L283.1,135.8z"/>
	<path class="st1" d="M534.2,197.4c-9.7-11.2-25.3-16.7-46.5-16.7H417l-32.8,168.7H421l8.7-44.8c43.2,0,67.1,2.5,90.2-19.1
		C546,261.5,552.8,218.8,534.2,197.4z M505,241.6c-8,41.1-36.7,36.3-70.1,36.3l13.7-70.6C486.8,207.3,512.4,203.2,505,241.6z"/>
</g>
</svg>
