<?xml version="1.0" encoding="utf-8"?>
<!-- Generator: Adobe Illustrator 25.3.1, SVG Export Plug-In . SVG Version: 6.00 Build 0)  -->
<svg version="1.1" id="Calque_1" focusable="false" xmlns="http://www.w3.org/2000/svg" xmlns:xlink="http://www.w3.org/1999/xlink"
	 x="0px" y="0px" viewBox="0 0 512 448.02" style="enable-background:new 0 0 512 448.02;" xml:space="preserve">
<style type="text/css">
	.st0{fill:#61DAFB;}
</style>
<path class="st0" d="M418.2,145.19c-5.4-1.8-10.8-3.5-16.2-5.1c0.9-3.7,1.7-7.4,2.5-11.1c12.3-59.6,4.2-107.5-23.1-123.3
	c-26.3-15.1-69.2,0.6-112.6,38.4c-4.3,3.7-8.5,7.6-12.5,11.5c-2.7-2.6-5.5-5.2-8.3-7.7c-45.5-40.4-91.1-57.4-118.4-41.5
	c-26.2,15.2-34,60.3-23,116.7c1.1,5.6,2.3,11.1,3.7,16.7c-6.4,1.8-12.7,3.8-18.6,5.9C38.3,164.19,0,193.39,0,223.59
	c0,31.2,40.8,62.5,96.3,81.5c4.5,1.5,9,3,13.6,4.3c-1.5,6-2.8,11.9-4,18c-10.5,55.5-2.3,99.5,23.9,114.6
	c27,15.6,72.4-0.4,116.6-39.1c3.5-3.1,7-6.3,10.5-9.7c4.4,4.3,9,8.4,13.6,12.4c42.8,36.8,85.1,51.7,111.2,36.6
	c27-15.6,35.8-62.9,24.4-120.5c-0.9-4.4-1.9-8.9-3-13.5c3.2-0.9,6.3-1.9,9.4-2.9c57.7-19.1,99.5-50,99.5-81.7
	C512,193.29,472.6,163.89,418.2,145.19L418.2,145.19z M282.9,60.29c37.2-32.4,71.9-45.1,87.7-36c16.9,9.7,23.4,48.9,12.8,100.4
	c-0.7,3.4-1.4,6.7-2.3,10c-22.2-5-44.7-8.6-67.3-10.6c-13-18.6-27.2-36.4-42.6-53.1C275.1,67.29,278.9,63.79,282.9,60.29z
	 M167.2,275.49c5.1,8.7,10.3,17.4,15.8,25.9c-15.6-1.7-31.1-4.2-46.4-7.5c4.4-14.4,9.9-29.3,16.3-44.5
	C157.5,258.19,162.2,266.89,167.2,275.49L167.2,275.49z M136.9,155.19c14.4-3.2,29.7-5.8,45.6-7.8c-5.3,8.3-10.5,16.8-15.4,25.4
	c-4.9,8.5-9.7,17.2-14.2,26C146.6,183.89,141.3,169.29,136.9,155.19L136.9,155.19z M164.3,224.09c6.6-13.8,13.8-27.3,21.4-40.6
	s15.8-26.2,24.4-38.9c15-1.1,30.3-1.7,45.9-1.7s31,0.6,45.9,1.7c8.5,12.6,16.6,25.5,24.3,38.7s14.9,26.7,21.7,40.4
	c-6.7,13.8-13.9,27.4-21.6,40.8c-7.6,13.3-15.7,26.2-24.2,39c-14.9,1.1-30.4,1.6-46.1,1.6s-30.9-0.5-45.6-1.4
	c-8.7-12.7-16.9-25.7-24.6-39S171,237.89,164.3,224.09L164.3,224.09z M344.9,275.29c5.1-8.8,9.9-17.7,14.6-26.7
	c6.4,14.5,12,29.2,16.9,44.3c-15.5,3.5-31.2,6.2-47,8C334.8,292.49,339.9,283.89,344.9,275.29L344.9,275.29z M359.3,198.79
	c-4.7-8.8-9.5-17.6-14.5-26.2c-4.9-8.5-10-16.9-15.3-25.2c16.1,2,31.5,4.7,45.9,8C370.8,170.19,365.4,184.59,359.3,198.79z
	 M256.2,86.29c10.5,11.4,20.4,23.4,29.6,35.8c-19.8-0.9-39.7-0.9-59.5,0C236.1,109.19,246.2,97.19,256.2,86.29z M140.2,24.99
	c16.8-9.8,54.1,4.2,93.4,39c2.5,2.2,5,4.6,7.6,7c-15.5,16.7-29.8,34.5-42.9,53.1c-22.6,2-45,5.5-67.2,10.4
	c-1.3-5.1-2.4-10.3-3.5-15.5C118.2,70.59,124.4,34.09,140.2,24.99L140.2,24.99z M115.7,288.59c-4.2-1.2-8.3-2.5-12.4-3.9
	c-21.3-6.7-45.5-17.3-63-31.2c-10.1-7-16.9-17.8-18.8-29.9c0-18.3,31.6-41.7,77.2-57.6c5.7-2,11.5-3.8,17.3-5.5
	c6.8,21.7,15,43,24.5,63.6C130.9,244.99,122.6,266.59,115.7,288.59z M232.3,386.59c-16.5,15.1-35.6,27.1-56.4,35.3
	c-11.1,5.3-23.9,5.8-35.3,1.3c-15.9-9.2-22.5-44.5-13.5-92c1.1-5.6,2.3-11.2,3.7-16.7c22.4,4.8,45,8.1,67.9,9.8
	c13.2,18.7,27.7,36.6,43.2,53.4C238.7,380.79,235.5,383.79,232.3,386.59L232.3,386.59z M256.8,362.29c-10.2-11-20.4-23.2-30.3-36.3
	c9.6,0.4,19.5,0.6,29.5,0.6c10.3,0,20.4-0.2,30.4-0.7C277.2,338.59,267.3,350.69,256.8,362.29z M387.5,392.29
	c-0.9,12.2-6.9,23.6-16.5,31.3c-15.9,9.2-49.8-2.8-86.4-34.2c-4.2-3.6-8.4-7.5-12.7-11.5c15.3-16.9,29.4-34.8,42.2-53.6
	c22.9-1.9,45.7-5.4,68.2-10.5c1,4.1,1.9,8.2,2.7,12.2C389.9,347.59,390.7,370.09,387.5,392.29L387.5,392.29z M405.7,284.79
	c-2.8,0.9-5.6,1.8-8.5,2.6c-7-21.8-15.6-43.1-25.5-63.8c9.6-20.4,17.7-41.4,24.5-62.9c5.2,1.5,10.2,3.1,15,4.7
	c46.6,16,79.3,39.8,79.3,58C490.5,242.99,455.6,268.29,405.7,284.79z M256,269.79c25.3,0,45.8-20.5,45.8-45.8s-20.5-45.8-45.8-45.8
	s-45.8,20.5-45.8,45.8S230.7,269.79,256,269.79L256,269.79z"/>
</svg>
